# xmcd
# Track frame offsets:
# 182
# 18127
# 35850
# 52512
# 70397
# 84247
# 99557
# 114370
# 130047
# 149620
# 160227
#
# Disc length: 2375 seconds
# Revision: 2
# Processed by: cddbd v1.4PL0 Copyright (c) Steve Scherf et al.
# Submitted via: VisiTrax 2.9.5.181 - For more info visit www.synapsa.com
#
DISCID=8809450b
DTITLE=Hank Williams, Jr. - New South
DYEAR=1977
DGENRE=
TTITLE0=Feelin' Better
TTITLE1=Montgomery In The Rain
TTITLE2=Looking At The Rain
TTITLE3=You're Gonna Change (Or I'm Gonna Leave)
TTITLE4=How's My Ex Treating You
TTITLE5=Uncle Pen
TTITLE6=Once And For All
TTITLE7=Storms Never Last
TTITLE8=New South
TTITLE9=Tennessee
TTITLE10=Long Way To Hollywood
EXTD=
EXTT0=
EXTT1=
EXTT2=
EXTT3=
EXTT4=
EXTT5=
EXTT6=
EXTT7=
EXTT8=
EXTT9=
EXTT10=
PLAYORDER=
